<svg xmlns="http://www.w3.org/2000/svg" viewBox="0 0 370 170" fill="currentColor" aria-hidden="true"><g transform="skewX(-9)"><path d="M21.51,25.89L20.13,28.27L18.78,30.69L17.48,33.13L16.23,35.61L15.03,38.12L13.89,40.66L12.82,43.23L11.82,45.83L10.89,48.45L10.04,51.09L9.28,53.76L8.61,56.45L8.03,59.16L7.55,61.88L7.17,64.61L6.89,67.35L6.71,70.09L6.65,72.83L6.68,75.57L6.83,78.30L7.08,81.02L7.45,83.73L7.92,86.42L8.50,89.09L9.18,91.73L9.96,94.34L10.85,96.92L11.83,99.46L12.90,101.96L14.07,104.41L15.31,106.83L16.64,109.19L18.05,111.50L19.52,113.77L21.06,115.98L22.66,118.13L24.32,120.23L26.02,122.28L27.77,124.27L29.55,126.21L30.45,125.79L30.18,123.20L29.96,120.63L29.78,118.07L29.65,115.52L29.55,112.99L29.48,110.48L29.44,107.98L29.40,105.50L29.39,103.03L29.37,100.59L29.36,98.15L29.35,95.74L29.32,93.33L29.29,90.94L29.24,88.55L29.17,86.18L29.08,83.80L28.97,81.44L28.83,79.07L28.67,76.70L28.48,74.32L28.27,71.94L28.03,69.55L27.77,67.15L27.48,64.74L27.17,62.31L26.84,59.86L26.50,57.40L26.14,54.91L25.77,52.41L25.39,49.88L25.02,47.33L24.64,44.75L24.27,42.16L23.92,39.53L23.58,36.89L23.26,34.23L22.97,31.54L22.71,28.84L22.49,26.11Z"/><path d="M26.79,34.37L29.43,33.80L31.99,33.43L34.44,33.23L36.78,33.17L38.99,33.25L41.07,33.45L43.01,33.76L44.80,34.17L46.43,34.67L47.90,35.23L49.21,35.85L50.34,36.51L51.30,37.19L52.09,37.87L52.72,38.52L53.19,39.13L53.53,39.69L53.75,40.18L53.89,40.59L53.97,40.93L54.02,41.21L54.08,41.47L54.16,41.73L54.26,42.05L54.38,42.44L54.50,42.95L54.60,43.59L54.65,44.39L54.63,45.34L54.51,46.44L54.28,47.70L53.91,49.10L53.39,50.63L52.71,52.28L51.84,54.04L50.80,55.88L49.55,57.81L48.11,59.81L46.45,61.85L44.58,63.94L47.42,68.06L50.17,66.84L52.78,65.57L55.25,64.25L57.58,62.87L59.76,61.42L61.80,59.91L63.69,58.31L65.42,56.63L66.98,54.86L68.36,52.99L69.56,51.03L70.55,48.98L71.31,46.85L71.82,44.64L72.07,42.38L72.04,40.10L71.72,37.83L71.10,35.63L70.20,33.53L69.03,31.57L67.64,29.80L66.05,28.24L64.30,26.89L62.43,25.76L60.45,24.85L58.41,24.14L56.30,23.62L54.15,23.28L51.95,23.10L49.72,23.08L47.45,23.20L45.15,23.46L42.81,23.85L40.44,24.35L38.02,24.98L35.56,25.71L33.06,26.55L30.50,27.50L27.89,28.53L25.21,29.63Z"/><path d="M28.64,70.93L31.97,70.70L35.13,70.69L38.10,70.88L40.88,71.23L43.46,71.72L45.83,72.35L47.97,73.09L49.90,73.92L51.60,74.82L53.06,75.77L54.31,76.74L55.33,77.70L56.15,78.64L56.77,79.53L57.24,80.36L57.56,81.12L57.78,81.80L57.92,82.41L58.02,82.98L58.10,83.54L58.17,84.11L58.24,84.74L58.28,85.46L58.29,86.29L58.24,87.26L58.11,88.38L57.87,89.64L57.49,91.05L56.96,92.61L56.26,94.29L55.36,96.10L54.25,98.01L52.92,100.01L51.37,102.09L49.57,104.22L47.53,106.41L45.23,108.62L42.67,110.84L39.84,113.07L36.75,115.27L39.25,120.73L43.13,119.58L46.84,118.33L50.37,117.00L53.73,115.56L56.91,114.03L59.91,112.39L62.73,110.64L65.36,108.78L67.81,106.80L70.06,104.71L72.09,102.50L73.91,100.16L75.49,97.71L76.82,95.15L77.88,92.49L78.64,89.74L79.09,86.93L79.20,84.08L78.97,81.25L78.40,78.46L77.48,75.78L76.23,73.24L74.68,70.90L72.87,68.77L70.83,66.89L68.61,65.26L66.22,63.89L63.71,62.76L61.08,61.88L58.37,61.23L55.58,60.80L52.73,60.57L49.80,60.54L46.81,60.69L43.75,61.03L40.62,61.53L37.43,62.19L34.16,63.01L30.81,63.98L27.36,65.07Z"/><path d="M95.51,29.89L94.16,32.43L92.85,34.99L91.59,37.55L90.37,40.13L89.21,42.72L88.10,45.32L87.06,47.93L86.09,50.55L85.20,53.18L84.38,55.81L83.64,58.44L83.00,61.07L82.44,63.71L81.98,66.34L81.61,68.96L81.34,71.57L81.18,74.17L81.12,76.75L81.16,79.31L81.31,81.84L81.57,84.35L81.93,86.82L82.40,89.25L82.97,91.64L83.65,93.98L84.43,96.27L85.31,98.50L86.28,100.67L87.35,102.77L88.50,104.80L89.74,106.75L91.06,108.62L92.44,110.41L93.89,112.11L95.41,113.71L96.97,115.23L98.58,116.64L100.22,117.96L101.90,119.17L103.59,120.29L104.41,119.71L104.05,117.78L103.76,115.84L103.53,113.90L103.35,111.96L103.21,110.02L103.11,108.08L103.04,106.15L102.99,104.21L102.96,102.27L102.93,100.33L102.91,98.38L102.89,96.42L102.86,94.45L102.82,92.47L102.76,90.47L102.69,88.46L102.60,86.42L102.49,84.36L102.35,82.27L102.19,80.16L102.01,78.01L101.80,75.83L101.57,73.62L101.31,71.37L101.04,69.09L100.75,66.76L100.44,64.40L100.11,62.00L99.78,59.55L99.43,57.07L99.09,54.54L98.74,51.98L98.40,49.37L98.06,46.73L97.74,44.04L97.43,41.32L97.15,38.57L96.90,35.78L96.67,32.96L96.49,30.11Z"/><path d="M97.53,118.47L98.56,120.06L99.66,121.59L100.83,123.07L102.06,124.48L103.36,125.82L104.73,127.09L106.17,128.27L107.67,129.38L109.23,130.39L110.85,131.30L112.52,132.11L114.24,132.81L116.01,133.40L117.81,133.88L119.63,134.23L121.48,134.46L123.35,134.56L125.21,134.53L127.07,134.38L128.92,134.09L130.75,133.68L132.55,133.14L134.30,132.48L136.01,131.71L137.67,130.81L139.26,129.81L140.79,128.70L142.24,127.49L143.62,126.18L144.92,124.80L146.13,123.33L147.26,121.78L148.30,120.17L149.25,118.50L150.11,116.77L150.89,114.99L151.59,113.17L152.20,111.30L152.73,109.39L153.19,107.45L146.81,104.55L145.72,105.84L144.60,107.03L143.46,108.12L142.31,109.12L141.16,110.03L140.01,110.85L138.87,111.60L137.74,112.26L136.62,112.86L135.52,113.39L134.44,113.86L133.38,114.29L132.35,114.66L131.33,114.99L130.34,115.29L129.36,115.56L128.40,115.80L127.45,116.02L126.51,116.22L125.58,116.41L124.64,116.58L123.70,116.73L122.75,116.87L121.78,117.00L120.80,117.11L119.79,117.19L118.75,117.26L117.69,117.29L116.59,117.30L115.46,117.26L114.30,117.18L113.10,117.06L111.87,116.87L110.60,116.63L109.30,116.31L107.98,115.93L106.63,115.46L105.25,114.91L103.87,114.26L102.47,113.53Z"/><path d="M159.98,110.55L159.95,107.81L159.89,105.09L159.82,102.40L159.75,99.74L159.66,97.10L159.56,94.50L159.45,91.92L159.33,89.38L159.21,86.86L159.09,84.37L158.96,81.92L158.82,79.49L158.69,77.10L158.55,74.74L158.42,72.40L158.29,70.10L158.16,67.83L158.03,65.60L157.91,63.39L157.80,61.22L157.69,59.08L157.59,56.97L157.50,54.89L157.42,52.85L157.36,50.84L157.30,48.87L157.26,46.93L157.24,45.02L157.23,43.14L157.24,41.30L157.26,39.50L157.31,37.72L157.37,35.98L157.46,34.28L157.57,32.61L157.70,30.97L157.86,29.36L158.04,27.79L158.25,26.25L158.49,24.75L153.51,23.25L152.88,24.78L152.28,26.36L151.70,27.97L151.16,29.62L150.64,31.31L150.14,33.04L149.67,34.81L149.22,36.61L148.80,38.45L148.39,40.32L148.00,42.23L147.63,44.17L147.28,46.14L146.95,48.14L146.63,50.17L146.32,52.24L146.03,54.33L145.74,56.45L145.47,58.60L145.20,60.78L144.95,62.99L144.70,65.22L144.45,67.48L144.21,69.77L143.97,72.08L143.74,74.42L143.50,76.78L143.27,79.16L143.03,81.57L142.79,84.00L142.55,86.45L142.30,88.93L142.05,91.42L141.78,93.94L141.52,96.48L141.24,99.03L140.95,101.61L140.65,104.20L140.34,106.81L140.02,109.45Z"/><path d="M165.36,25.20L164.83,28.21L164.33,31.22L163.86,34.23L163.42,37.23L163.01,40.23L162.64,43.23L162.30,46.22L162.00,49.21L161.72,52.20L161.48,55.18L161.28,58.16L161.10,61.13L160.97,64.10L160.86,67.06L160.79,70.02L160.75,72.98L160.75,75.93L160.79,78.87L160.85,81.82L160.95,84.75L161.09,87.68L161.26,90.61L161.47,93.53L161.71,96.45L161.99,99.36L162.30,102.26L162.65,105.16L163.03,108.05L163.45,110.94L163.91,113.82L164.40,116.70L164.92,119.57L165.49,122.44L166.08,125.30L166.72,128.15L167.39,131.00L168.10,133.84L168.84,136.68L169.62,139.51L170.43,142.33L173.57,141.67L173.22,138.79L172.91,135.92L172.64,133.06L172.41,130.20L172.21,127.35L172.05,124.50L171.93,121.66L171.84,118.83L171.79,116.00L171.78,113.18L171.80,110.36L171.86,107.55L171.95,104.74L172.08,101.94L172.24,99.14L172.43,96.35L172.66,93.57L172.92,90.79L173.22,88.02L173.55,85.25L173.91,82.48L174.30,79.73L174.72,76.97L175.18,74.22L175.67,71.48L176.19,68.74L176.74,66.00L177.32,63.27L177.94,60.54L178.58,57.82L179.25,55.10L179.96,52.39L180.69,49.68L181.45,46.97L182.24,44.27L183.07,41.57L183.92,38.87L184.79,36.18L185.70,33.49L186.64,30.80Z"/><path d="M180.66,36.41L183.87,35.96L186.94,35.75L189.83,35.74L192.55,35.91L195.08,36.25L197.41,36.72L199.54,37.32L201.45,38.02L203.14,38.80L204.60,39.64L205.84,40.52L206.86,41.41L207.66,42.28L208.26,43.11L208.69,43.87L208.96,44.55L209.11,45.13L209.18,45.63L209.20,46.06L209.21,46.44L209.22,46.82L209.24,47.23L209.27,47.71L209.28,48.31L209.26,49.03L209.17,49.91L208.98,50.94L208.67,52.12L208.22,53.45L207.59,54.91L206.78,56.50L205.77,58.20L204.53,59.98L203.07,61.85L201.38,63.77L199.43,65.73L197.24,67.72L194.78,69.72L192.07,71.71L189.09,73.67L190.91,78.33L194.61,77.53L198.15,76.63L201.53,75.63L204.74,74.52L207.79,73.30L210.67,71.97L213.39,70.52L215.93,68.94L218.29,67.23L220.47,65.40L222.45,63.43L224.21,61.32L225.75,59.09L227.03,56.72L228.05,54.24L228.77,51.66L229.16,49.01L229.22,46.33L228.93,43.66L228.29,41.06L227.30,38.58L226.00,36.26L224.42,34.15L222.59,32.29L220.57,30.67L218.39,29.31L216.07,28.21L213.66,27.35L211.16,26.71L208.59,26.29L205.95,26.08L203.26,26.05L200.50,26.20L197.69,26.52L194.82,27.00L191.87,27.63L188.86,28.42L185.78,29.35L182.61,30.42L179.34,31.59Z"/><path d="M258.01,127.18L258.86,123.86L259.70,120.58L260.52,117.35L261.33,114.18L262.13,111.06L262.91,107.99L263.69,104.96L264.45,101.98L265.20,99.05L265.94,96.17L266.67,93.33L267.39,90.54L268.11,87.79L268.81,85.09L269.51,82.42L270.20,79.80L270.89,77.22L271.57,74.68L272.24,72.18L272.91,69.72L273.58,67.29L274.24,64.90L274.91,62.55L275.56,60.23L276.22,57.94L276.88,55.69L277.54,53.47L278.19,51.28L278.85,49.13L279.51,47.00L280.17,44.90L280.83,42.83L281.50,40.79L282.17,38.77L282.85,36.78L283.53,34.81L284.22,32.86L284.91,30.94L285.62,29.04L286.33,27.16L281.67,24.84L280.59,26.58L279.51,28.35L278.44,30.15L277.38,31.97L276.31,33.82L275.26,35.70L274.20,37.60L273.15,39.54L272.10,41.50L271.05,43.50L270.01,45.53L268.96,47.59L267.92,49.68L266.88,51.81L265.83,53.96L264.79,56.16L263.74,58.38L262.69,60.65L261.64,62.95L260.59,65.28L259.53,67.66L258.47,70.07L257.40,72.52L256.33,75.01L255.25,77.54L254.16,80.12L253.07,82.73L251.97,85.39L250.86,88.09L249.75,90.83L248.62,93.62L247.49,96.45L246.34,99.33L245.19,102.25L244.02,105.22L242.84,108.24L241.65,111.31L240.44,114.43L239.23,117.60L237.99,120.82Z"/><path d="M281.19,27.05L281.92,29.51L282.64,31.97L283.35,34.43L284.06,36.91L284.75,39.38L285.44,41.87L286.12,44.36L286.80,46.85L287.46,49.35L288.12,51.85L288.77,54.36L289.41,56.87L290.05,59.39L290.67,61.91L291.29,64.43L291.90,66.96L292.51,69.49L293.10,72.03L293.69,74.57L294.27,77.11L294.84,79.65L295.41,82.20L295.97,84.75L296.52,87.30L297.06,89.86L297.59,92.41L298.12,94.97L298.64,97.53L299.15,100.09L299.65,102.65L300.15,105.21L300.64,107.78L301.12,110.34L301.59,112.90L302.05,115.47L302.51,118.03L302.96,120.60L303.40,123.16L303.84,125.73L304.27,128.29L323.73,123.71L322.95,121.17L322.17,118.64L321.37,116.10L320.57,113.57L319.76,111.04L318.94,108.51L318.12,105.98L317.28,103.46L316.45,100.93L315.60,98.41L314.74,95.90L313.88,93.38L313.01,90.87L312.14,88.36L311.25,85.86L310.36,83.35L309.47,80.86L308.56,78.36L307.65,75.88L306.73,73.39L305.80,70.91L304.87,68.44L303.93,65.97L302.98,63.50L302.02,61.04L301.06,58.59L300.09,56.14L299.11,53.70L298.12,51.27L297.13,48.84L296.13,46.41L295.12,44.00L294.11,41.59L293.09,39.19L292.06,36.80L291.02,34.41L289.98,32.03L288.93,29.66L287.87,27.30L286.81,24.95Z"/><path d="M258.20,96.46L259.70,96.25L261.19,96.08L262.66,95.94L264.11,95.83L265.54,95.74L266.95,95.67L268.34,95.62L269.71,95.59L271.06,95.57L272.39,95.55L273.69,95.55L274.98,95.55L276.25,95.55L277.50,95.55L278.73,95.55L279.95,95.55L281.15,95.54L282.33,95.52L283.51,95.50L284.67,95.47L285.82,95.43L286.97,95.39L288.11,95.33L289.25,95.27L290.38,95.20L291.51,95.12L292.65,95.04L293.78,94.96L294.92,94.87L296.06,94.78L297.21,94.70L298.36,94.62L299.52,94.54L300.68,94.48L301.85,94.43L303.03,94.39L304.22,94.38L305.41,94.38L306.60,94.41L307.80,94.46L308.20,93.54L307.28,92.72L306.33,91.91L305.35,91.13L304.34,90.37L303.29,89.64L302.21,88.94L301.09,88.28L299.95,87.65L298.77,87.07L297.57,86.53L296.33,86.04L295.08,85.59L293.79,85.20L292.49,84.86L291.17,84.57L289.83,84.35L288.47,84.18L287.10,84.07L285.72,84.02L284.33,84.03L282.94,84.10L281.54,84.23L280.14,84.42L278.74,84.68L277.35,84.99L275.96,85.36L274.58,85.78L273.20,86.26L271.84,86.80L270.49,87.38L269.15,88.02L267.83,88.70L266.52,89.43L265.22,90.19L263.95,91.00L262.68,91.85L261.44,92.73L260.21,93.64L259.00,94.58L257.80,95.54Z"/><path d="M26.39,149.33L32.81,150.49L39.36,151.54L46.06,152.50L52.89,153.35L59.85,154.10L66.92,154.75L74.12,155.30L81.41,155.75L88.82,156.09L96.31,156.34L103.90,156.48L111.56,156.52L119.31,156.47L127.12,156.31L134.99,156.05L142.92,155.69L150.90,155.23L158.92,154.67L166.98,154.00L175.07,153.24L183.17,152.37L191.29,151.40L199.43,150.33L207.56,149.16L215.68,147.89L223.80,146.51L231.89,145.03L239.96,143.45L247.99,141.77L255.99,139.98L263.94,138.10L271.83,136.10L279.66,134.01L287.43,131.81L295.11,129.51L302.72,127.11L310.24,124.61L317.65,122.00L324.97,119.28L332.18,116.47L331.82,115.53L324.52,118.01L317.11,120.38L309.61,122.65L302.03,124.81L294.36,126.87L286.62,128.82L278.82,130.67L270.95,132.41L263.04,134.04L255.07,135.58L247.07,137.01L239.04,138.34L230.98,139.56L222.90,140.68L214.81,141.70L206.71,142.61L198.62,143.43L190.54,144.14L182.48,144.75L174.43,145.26L166.42,145.67L158.45,145.98L150.52,146.19L142.64,146.29L134.83,146.30L127.08,146.21L119.40,146.02L111.80,145.73L104.29,145.34L96.88,144.85L89.56,144.27L82.36,143.58L75.28,142.80L68.32,141.93L61.49,140.95L54.80,139.89L48.26,138.72L41.88,137.47L35.66,136.12L29.61,134.67Z"/><path d="M343.51,17.09L343.51,18.52L343.49,19.93L343.47,21.32L343.44,22.68L343.40,24.01L343.35,25.33L343.30,26.62L343.25,27.89L343.20,29.14L343.14,30.37L343.09,31.59L343.04,32.79L342.99,33.97L342.95,35.14L342.91,36.30L342.88,37.45L342.85,38.60L342.84,39.73L342.82,40.87L342.82,42.00L342.82,43.13L342.84,44.27L342.85,45.40L342.88,46.55L342.91,47.70L342.95,48.86L342.99,50.03L343.04,51.21L343.09,52.41L343.14,53.63L343.20,54.86L343.25,56.11L343.30,57.38L343.35,58.67L343.40,59.99L343.44,61.32L343.47,62.68L343.49,64.07L343.51,65.48L343.51,66.91L344.49,67.09L344.99,65.74L345.48,64.40L345.95,63.08L346.40,61.78L346.83,60.49L347.25,59.21L347.64,57.95L348.01,56.69L348.36,55.44L348.68,54.20L348.98,52.97L349.24,51.74L349.48,50.51L349.69,49.29L349.87,48.07L350.02,46.85L350.13,45.64L350.21,44.43L350.26,43.21L350.28,42.00L350.26,40.79L350.21,39.57L350.13,38.36L350.02,37.15L349.87,35.93L349.69,34.71L349.48,33.49L349.24,32.26L348.98,31.03L348.68,29.80L348.36,28.56L348.01,27.31L347.64,26.05L347.25,24.79L346.83,23.51L346.40,22.22L345.95,20.92L345.48,19.60L344.99,18.26L344.49,16.91Z"/><path d="M318.91,42.49L320.26,42.99L321.60,43.48L322.92,43.95L324.22,44.40L325.51,44.83L326.79,45.25L328.05,45.64L329.31,46.01L330.56,46.36L331.80,46.68L333.03,46.98L334.26,47.24L335.49,47.48L336.71,47.69L337.93,47.87L339.15,48.02L340.36,48.13L341.57,48.21L342.79,48.26L344.00,48.28L345.21,48.26L346.43,48.21L347.64,48.13L348.85,48.02L350.07,47.87L351.29,47.69L352.51,47.48L353.74,47.24L354.97,46.98L356.20,46.68L357.44,46.36L358.69,46.01L359.95,45.64L361.21,45.25L362.49,44.83L363.78,44.40L365.08,43.95L366.40,43.48L367.74,42.99L369.09,42.49L368.91,41.51L367.48,41.51L366.07,41.49L364.68,41.47L363.32,41.44L361.99,41.40L360.67,41.35L359.38,41.30L358.11,41.25L356.86,41.20L355.63,41.14L354.41,41.09L353.21,41.04L352.03,40.99L350.86,40.95L349.70,40.91L348.55,40.88L347.40,40.85L346.27,40.84L345.13,40.82L344.00,40.82L342.87,40.82L341.73,40.84L340.60,40.85L339.45,40.88L338.30,40.91L337.14,40.95L335.97,40.99L334.79,41.04L333.59,41.09L332.37,41.14L331.14,41.20L329.89,41.25L328.62,41.30L327.33,41.35L326.01,41.40L324.68,41.44L323.32,41.47L321.93,41.49L320.52,41.51L319.09,41.51Z"/><path d="M9.51,98.11L9.51,98.81L9.50,99.49L9.49,100.16L9.47,100.82L9.45,101.46L9.42,102.10L9.39,102.72L9.36,103.33L9.33,103.93L9.30,104.51L9.26,105.09L9.23,105.66L9.20,106.22L9.18,106.78L9.16,107.32L9.14,107.87L9.12,108.40L9.11,108.94L9.10,109.47L9.10,110.00L9.10,110.53L9.11,111.06L9.12,111.60L9.14,112.13L9.16,112.68L9.18,113.22L9.20,113.78L9.23,114.34L9.26,114.91L9.30,115.49L9.33,116.07L9.36,116.67L9.39,117.28L9.42,117.90L9.45,118.54L9.47,119.18L9.49,119.84L9.50,120.51L9.51,121.19L9.51,121.89L10.49,122.11L10.78,121.47L11.07,120.83L11.34,120.21L11.61,119.59L11.86,118.97L12.11,118.36L12.34,117.75L12.56,117.15L12.76,116.55L12.95,115.95L13.13,115.35L13.29,114.76L13.43,114.16L13.55,113.57L13.66,112.97L13.74,112.38L13.81,111.78L13.86,111.19L13.89,110.59L13.90,110.00L13.89,109.41L13.86,108.81L13.81,108.22L13.74,107.62L13.66,107.03L13.55,106.43L13.43,105.84L13.29,105.24L13.13,104.65L12.95,104.05L12.76,103.45L12.56,102.85L12.34,102.25L12.11,101.64L11.86,101.03L11.61,100.41L11.34,99.79L11.07,99.17L10.78,98.53L10.49,97.89Z"/><path d="M-2.11,110.49L-1.47,110.78L-0.83,111.07L-0.21,111.34L0.41,111.61L1.03,111.86L1.64,112.11L2.25,112.34L2.85,112.56L3.45,112.76L4.05,112.95L4.65,113.13L5.24,113.29L5.84,113.43L6.43,113.55L7.03,113.66L7.62,113.74L8.22,113.81L8.81,113.86L9.41,113.89L10.00,113.90L10.59,113.89L11.19,113.86L11.78,113.81L12.38,113.74L12.97,113.66L13.57,113.55L14.16,113.43L14.76,113.29L15.35,113.13L15.95,112.95L16.55,112.76L17.15,112.56L17.75,112.34L18.36,112.11L18.97,111.86L19.59,111.61L20.21,111.34L20.83,111.07L21.47,110.78L22.11,110.49L21.89,109.51L21.19,109.51L20.51,109.50L19.84,109.49L19.18,109.47L18.54,109.45L17.90,109.42L17.28,109.39L16.67,109.36L16.07,109.33L15.49,109.30L14.91,109.26L14.34,109.23L13.78,109.20L13.22,109.18L12.68,109.16L12.13,109.14L11.60,109.12L11.06,109.11L10.53,109.10L10.00,109.10L9.47,109.10L8.94,109.11L8.40,109.12L7.87,109.14L7.32,109.16L6.78,109.18L6.22,109.20L5.66,109.23L5.09,109.26L4.51,109.30L3.93,109.33L3.33,109.36L2.72,109.39L2.10,109.42L1.46,109.45L0.82,109.47L0.16,109.49L-0.51,109.50L-1.19,109.51L-1.89,109.51Z"/></g></svg>